

Release info:

General
Format                                   : Matroska
Format version                           : Version 2
File size                                : 698 MiB
Duration                                 : 1h 21mn
Overall bit rate                         : 1 198 Kbps

Video
ID                                       : 1
Format                                   : MPEG-4 Visual
Format profile                           : Advanced Simple@L5
Format settings, BVOP                    : Yes
Format settings, QPel                    : No
Format settings, GMC                     : No warppoints
Format settings, Matrix                  : Default (H.263)
Codec ID                                 : V_MS/VFW/FOURCC / XVID
Codec ID/Hint                            : XviD
Duration                                 : 1h 21mn
Bit rate                                 : 1 046 Kbps
Width                                    : 678 pixels
Height                                   : 320 pixels
Display aspect ratio                     : 2.119
Frame rate mode                          : Constant
Frame rate                               : 29.970 fps
Color space                              : YUV
Chroma subsampling                       : 4:2:0
Bit depth                                : 8 bits
Scan type                                : Progressive
Compression mode                         : Lossy
Bits/(Pixel*Frame)                       : 0.161
Stream size                              : 609 MiB (87%)
Writing library                          : XviD 64
Language                                 : English
Default                                  : Yes
Forced                                   : No

Audio
ID                                       : 2
Format                                   : MPEG Audio
Format version                           : Version 1
Format profile                           : Layer 3
Muxing mode                              : Header stripping
Codec ID                                 : A_MPEG/L3
Codec ID/Hint                            : MP3
Duration                                 : 1h 21mn
Bit rate mode                            : Constant
Bit rate                                 : 128 Kbps
Channel(s)                               : 2 channels
Sampling rate                            : 48.0 KHz
Compression mode                         : Lossy
Stream size                              : 74.6 MiB (11%)
Language                                 : English
Default                                  : Yes
Forced                                   : No


Source:
credit to original movie ripper TiCKLE TiME (Thanks)

IMDB Info:

Malcolm and Kisha move into their dream home, but soon learn a demon also resides there. When Kisha becomes possessed, Malcolm - determined to keep his sex life on track - turns to a priest, a psychic, and a team of ghost-busters for help.

Director: Michael Tiddes
Writers: Marlon Wayans, Rick Alvarez
Stars: Marlon Wayans, Essence Atkins and Marlene Forte

Genres: Comedy | Horror
 
http://www.imdb.com/title/tt2243537/

Screen Shot:
 
http://www.shotpix.com/images/80091331033191986068.png 
http://www.shotpix.com/images/42352969415258234428.png 
http://www.shotpix.com/images/09062775278711051752.png 
http://www.shotpix.com/images/39709075334724387065.png